<svg width="32" height="32" viewBox="0 0 32 32" fill="none" xmlns="http://www.w3.org/2000/svg">
<path d="M26.667 24H24.0003V12.3334L16.0003 17.3334L8.00033 12.3334V24H5.33366V8.00004H6.93366L16.0003 13.6667L25.067 8.00004H26.667M26.667 5.33337H5.33366C3.85366 5.33337 2.66699 6.52004 2.66699 8.00004V24C2.66699 24.7073 2.94794 25.3856 3.44804 25.8857C3.94814 26.3858 4.62641 26.6667 5.33366 26.6667H26.667C27.3742 26.6667 28.0525 26.3858 28.5526 25.8857C29.0527 25.3856 29.3337 24.7073 29.3337 24V8.00004C29.3337 7.2928 29.0527 6.61452 28.5526 6.11442C28.0525 5.61433 27.3742 5.33337 26.667 5.33337Z" fill="white"/>
</svg>
