<svg width="32" height="32" viewBox="0 0 32 32" fill="none" xmlns="http://www.w3.org/2000/svg">
<path d="M10.6673 17.3334H21.334V14.6667H10.6673V17.3334ZM10.6673 21.3334H21.334V18.6667H10.6673V21.3334ZM10.6673 25.3334H17.334V22.6667H10.6673V25.3334ZM8.00065 29.3334C7.26732 29.3334 6.63976 29.0725 6.11798 28.5507C5.59621 28.0289 5.33487 27.4009 5.33398 26.6667V5.33335C5.33398 4.60002 5.59532 3.97246 6.11798 3.45069C6.64065 2.92891 7.26821 2.66758 8.00065 2.66669H18.6673L26.6673 10.6667V26.6667C26.6673 27.4 26.4064 28.028 25.8847 28.5507C25.3629 29.0734 24.7349 29.3342 24.0007 29.3334H8.00065ZM17.334 12V5.33335H8.00065V26.6667H24.0007V12H17.334Z" fill="white"/>
</svg>
