<svg width="32" height="32" viewBox="0 0 32 32" fill="none" xmlns="http://www.w3.org/2000/svg">
<g clip-path="url(#clip0_328_387)">
<path d="M3.7394 0.0043521C3.70607 0.0403521 3.7794 0.164352 3.9794 0.400352C4.11007 0.551019 4.19273 0.711019 4.29007 0.992352C4.3634 1.20569 4.45007 1.41369 4.4834 1.45502C4.5314 1.52035 4.53673 1.50435 4.5394 1.30835V1.09102L4.83007 1.49102C5.2714 2.10035 5.54607 2.42435 5.73007 2.55502C5.8234 2.61635 5.88073 2.67769 5.85673 2.68569C5.7914 2.70569 5.2194 2.39102 4.95273 2.18702C4.86586 2.11458 4.77156 2.05157 4.6714 1.99902C4.6514 1.99902 4.58473 1.93769 4.52873 1.86302C4.44952 1.7661 4.35706 1.68082 4.25407 1.60969C4.02606 1.45102 3.78473 1.22302 3.7274 1.11235C3.68606 1.02969 3.5594 0.976352 3.5594 1.04035C3.5594 1.10702 3.88607 1.54302 4.1394 1.81369C4.91673 2.64302 5.71007 3.05635 7.8314 3.71769C8.28073 3.85769 8.67807 3.99635 8.71407 4.02835C8.7558 4.05986 8.80587 4.07841 8.85807 4.08169C8.90665 4.08473 8.95399 4.09839 8.99673 4.12169C9.05007 4.15502 9.04473 4.16435 8.9834 4.16435C8.93451 4.16435 8.91407 4.1888 8.92207 4.23769C8.9354 4.31146 9.13451 4.37546 9.5194 4.42969C9.6914 4.45369 9.73273 4.44569 9.73273 4.39769C9.73273 4.33102 9.61273 4.28702 9.43807 4.28702C9.3714 4.28702 9.3234 4.26569 9.3234 4.24702C9.3234 4.22035 9.3634 4.21235 9.41673 4.22035C9.46607 4.23369 9.63807 4.26035 9.79273 4.28969C10.1607 4.35102 10.2634 4.39235 10.2634 4.46969C10.2634 4.55635 10.3741 4.59235 10.4474 4.53102C10.4883 4.49546 10.5087 4.49413 10.5087 4.52702C10.5087 4.55235 10.5287 4.57235 10.5487 4.57235C10.5741 4.57235 10.5901 4.54435 10.5901 4.51102C10.5901 4.43369 10.5501 4.43369 11.2367 4.53902C11.6447 4.60035 11.7967 4.64169 11.7354 4.66302C11.6047 4.71102 11.6781 4.77635 11.8621 4.77635C11.9554 4.77635 12.0221 4.79769 12.0221 4.82169C12.0221 4.85902 12.1154 4.86169 12.3474 4.84569C12.5607 4.82969 12.6834 4.83369 12.6994 4.86302C12.7167 4.88702 12.7861 4.89902 12.8594 4.88702C12.9287 4.87369 13.1207 4.89102 13.2754 4.92035C13.6847 4.99769 14.7847 5.05902 17.2447 5.14569C21.2221 5.28435 24.1207 5.58169 25.2087 5.96569C25.6914 6.13902 26.4194 6.50569 26.5541 6.64569C26.7674 6.86969 26.8314 7.05369 26.8074 7.35635C26.7934 7.45542 26.7934 7.55596 26.8074 7.65502C26.9261 7.77369 27.1874 7.54035 27.1874 7.31635C27.1874 7.27102 27.2727 7.16035 27.3834 7.06569C27.8234 6.67902 27.8901 6.46035 27.8407 5.57369C27.8087 4.97635 27.8007 4.93635 27.5341 4.06169C27.1874 2.91635 27.1061 2.74169 26.6887 2.29902C26.1981 1.78435 25.7527 1.48969 25.1421 1.28169C24.9097 1.2008 24.6785 1.11635 24.4487 1.02835C24.1167 0.897685 23.8794 0.840352 23.3981 0.771019C22.7154 0.672352 21.2474 0.603019 20.7901 0.648352C20.6261 0.664352 19.9714 0.648352 19.2567 0.603019C18.4434 0.559019 17.9447 0.541685 17.8261 0.567019C17.6961 0.590066 17.5647 0.603437 17.4327 0.607019C17.2916 0.597583 17.1525 0.644584 17.0461 0.737685C16.8781 0.860352 16.7594 0.897685 16.2927 0.975019C15.5407 1.09769 15.0541 1.19502 14.8501 1.26569C14.6901 1.32302 14.4287 1.35902 14.0234 1.38435C12.9167 1.45369 12.2874 1.51102 12.1474 1.55635C12.0541 1.58435 11.6941 1.59235 11.0941 1.58035C10.3607 1.56435 10.1741 1.57235 10.1367 1.61769C10.0994 1.65769 10.1167 1.67102 10.2141 1.67102C10.4554 1.67102 12.6101 1.83769 12.6301 1.85769C12.6501 1.87769 12.2661 1.86169 11.1674 1.79235C10.9583 1.77138 10.7479 1.76692 10.5381 1.77902C10.4594 1.82969 9.8794 1.82169 9.3234 1.76435C8.66161 1.70011 8.00556 1.58646 7.36073 1.42435C7.07861 1.35663 6.79144 1.31203 6.50207 1.29102C6.06473 1.26969 5.5994 1.11769 4.94073 0.787019C4.5074 0.573685 4.4594 0.564352 4.4594 0.739019V0.873685L4.3274 0.711019C4.24922 0.616786 4.18211 0.51389 4.1274 0.404352C4.05407 0.248352 3.78073 -0.0329812 3.7394 0.0043521ZM4.34873 4.25369C3.58873 4.28969 2.89006 4.88035 2.38873 5.93769C2.09007 6.57102 2.03673 6.81769 2.01673 7.65902C2.00073 8.32169 2.00873 8.45635 2.10207 9.00835C2.30207 10.1564 2.3554 10.291 2.77673 10.7044C3.22207 11.1457 4.33007 11.751 4.9474 11.891C5.16073 11.935 5.41007 11.9924 5.4994 12.0164C5.8434 12.103 6.31273 12.135 7.48207 12.151C8.60607 12.171 8.70073 12.1684 8.8514 12.0937C8.95807 12.0404 9.1834 12.0004 9.50473 11.9764C9.7754 11.951 10.0607 11.915 10.1394 11.8897C10.2604 11.8642 10.3837 11.8508 10.5074 11.8497C10.6341 11.8497 10.7607 11.8244 10.7847 11.8004C10.8834 11.7017 11.3487 11.6004 11.7941 11.575C12.0434 11.5617 12.2767 11.539 12.3181 11.5177C12.4527 11.4444 12.3874 11.403 12.1674 11.4284C12.0688 11.4434 11.9681 11.4361 11.8727 11.407C11.8061 11.367 11.8274 11.363 11.9821 11.359C12.0847 11.359 12.2847 11.3457 12.4287 11.3297C12.6487 11.3097 12.6741 11.2964 12.6127 11.2524C12.4607 11.1417 12.5927 11.1137 13.2701 11.1137C13.8794 11.1137 14.0567 11.0844 13.8754 11.015C13.7647 10.9934 13.6521 10.9836 13.5394 10.9857C13.3887 10.9817 13.3234 10.9697 13.3887 10.9657C13.4581 10.9577 13.6061 10.9297 13.7247 10.9084C13.8394 10.8844 14.5581 10.855 15.3194 10.847C16.0794 10.839 16.7247 10.831 16.7527 10.827C16.7892 10.8261 16.799 10.799 16.7821 10.7457C16.7661 10.687 16.7741 10.663 16.8181 10.663C16.8514 10.663 16.9287 10.5977 16.9914 10.5204C17.1127 10.3604 17.1461 10.3684 17.1981 10.5777L17.2354 10.7124L17.5287 10.7257C17.7634 10.7337 17.8407 10.7204 17.9181 10.663C17.9922 10.6131 18.0757 10.5787 18.1634 10.5617L18.3154 10.5324L18.2901 10.7697C18.2661 10.9617 18.2701 10.999 18.3194 10.983C18.4162 10.9544 18.514 10.9295 18.6127 10.9084L18.8461 10.8644L18.7567 10.7444C18.6872 10.669 18.5974 10.6153 18.4981 10.5897L18.3354 10.5497L18.5807 10.5404C18.714 10.5364 18.8474 10.5364 18.9807 10.5404C19.0674 10.5444 19.1327 10.5284 19.1327 10.5044C19.1327 10.4804 19.1087 10.459 19.0834 10.455C19.0554 10.451 18.9647 10.447 18.8874 10.4417C18.7872 10.4251 18.6904 10.3922 18.6007 10.3444C18.5374 10.2995 18.4651 10.269 18.3887 10.255C18.3487 10.255 18.3154 10.2337 18.3154 10.215C18.3154 10.1857 18.4381 10.1737 18.6541 10.1817C18.9847 10.1937 18.9901 10.1937 19.0007 10.3044C19.0181 10.431 19.0181 10.431 19.1074 10.3937C19.1225 10.388 19.135 10.377 19.1426 10.3628C19.1502 10.3486 19.1524 10.3321 19.1487 10.3164C19.1247 10.251 19.1981 10.1964 19.2594 10.2377C19.2834 10.251 19.3821 10.267 19.4727 10.275C19.6927 10.2884 20.7674 10.3737 21.0461 10.4017C21.1927 10.4177 21.2581 10.4417 21.2581 10.4844C21.2581 10.5537 21.3074 10.5564 21.3687 10.495C21.4007 10.463 21.5607 10.4684 21.9487 10.5044C22.4234 10.5497 22.4847 10.5617 22.4847 10.631C22.483 10.679 22.5141 10.7048 22.5781 10.7084C22.6274 10.7084 22.7994 10.7244 22.9541 10.7417C23.1141 10.7577 23.2647 10.7657 23.2901 10.7537C23.3181 10.7444 23.4087 10.623 23.4901 10.4844C23.6501 10.2177 23.7847 10.0497 23.8367 10.0497C23.8581 10.0497 23.8621 10.079 23.8501 10.1124C23.8327 10.1444 23.8461 10.1737 23.8701 10.1737C23.8994 10.1737 23.9154 10.2057 23.9074 10.243C23.8994 10.291 23.9354 10.3204 24.0301 10.3404C24.1807 10.3737 24.2501 10.4177 24.1487 10.4177C24.1114 10.4177 24.0781 10.443 24.0781 10.471C24.0781 10.499 24.3194 10.603 24.6714 10.7164C25.0474 10.843 25.2634 10.9337 25.2634 10.9697C25.2634 11.0097 25.1367 10.983 24.7861 10.863C23.9527 10.5777 23.5887 10.5164 23.5887 10.659C23.5887 10.7204 23.6541 10.7497 23.9687 10.823C24.1727 10.8724 24.3687 10.9084 24.4021 10.9084C24.466 10.9281 24.5247 10.9618 24.5741 11.007C24.6394 11.0644 24.9661 11.199 25.3247 11.3177C25.6887 11.4404 26.0127 11.571 26.0781 11.6284C26.1561 11.6918 26.2428 11.7439 26.3354 11.783C26.5927 11.8937 26.9621 12.2244 27.2394 12.5964C27.6394 13.1364 27.6354 13.1164 27.4141 13.1164C27.3127 13.1164 27.0221 13.087 26.7687 13.055C26.5341 13.0238 26.2984 13.0016 26.0621 12.9884C25.7754 12.9817 23.4367 13.0257 22.5621 13.055L21.9687 13.075L21.8754 12.875C21.7823 12.7138 21.6684 12.5654 21.5367 12.4337C21.3034 12.2044 21.2914 12.2004 21.2381 12.2777C21.2047 12.323 21.0821 12.495 20.9634 12.6537L20.7474 12.9524L20.4807 12.9617C20.3341 12.9617 20.1834 12.9657 20.1474 12.9617C20.0567 12.9537 20.0527 13.0017 20.1341 13.1537L20.1914 13.267L19.7741 13.2964C18.6381 13.3737 16.2274 13.6724 15.4167 13.8404C15.1176 13.8862 14.8154 13.9094 14.5127 13.9097C13.8994 13.9177 13.8434 13.9337 13.4541 14.159C13.3847 14.195 13.3314 14.2044 13.2821 14.179C13.2358 14.1524 13.1981 14.1577 13.1687 14.195C13.1234 14.2484 12.9767 14.2724 11.8967 14.387C11.6594 14.4124 11.2634 14.4657 11.0101 14.507C10.5687 14.579 10.5434 14.579 10.3114 14.507C10.0661 14.4284 9.30073 14.3257 8.6474 14.2804L8.2794 14.2524L8.0634 14.4484C7.92504 14.5739 7.79748 14.7108 7.68207 14.8577C7.5594 15.0244 7.4954 15.079 7.4154 15.079C7.24873 15.079 5.75673 15.311 4.67407 15.507C3.50473 15.7204 3.0634 15.7604 2.7194 15.691C2.36473 15.6177 2.3594 15.6137 2.37673 15.1644C2.39273 14.7844 2.38873 14.7724 2.29007 14.723C2.06607 14.6084 1.85007 14.6737 1.5554 14.939C1.48176 15.0029 1.38605 15.0354 1.28873 15.0297C1.14971 15.0388 1.01382 15.075 0.888732 15.1364L0.647398 15.2457L0.659398 15.459C0.671032 15.5564 0.661016 15.6552 0.630065 15.7484C0.598065 15.7977 0.590065 16.015 0.606065 16.375C0.622065 16.811 0.610065 16.971 0.552732 17.183L0.483398 17.4457L0.679398 17.723C1.07273 18.275 1.35007 18.6964 1.35007 18.7404C1.35007 18.7657 1.47273 18.8964 1.6274 19.031C2.30207 19.6244 2.58873 19.7844 3.2514 19.923C3.95407 20.0737 4.06873 20.0657 4.50607 19.8324C4.68971 19.7346 4.8638 19.6199 5.02606 19.4897C5.13273 19.391 5.43407 19.231 6.0154 18.9737C6.91807 18.5737 7.03273 18.5284 7.03273 18.5817C7.03273 18.5977 7.09007 19.1497 7.1594 19.8004C7.30207 21.1644 7.34607 22.4737 7.28607 23.479C7.23673 24.2684 7.20073 24.3777 6.64473 25.4257C5.78206 27.047 4.7474 28.6177 3.9674 29.4883C3.8274 29.6484 3.6154 29.9217 3.49673 30.1017C3.2714 30.4404 2.8554 30.895 2.3354 31.3604C2.1594 31.5204 2.04473 31.6537 2.05807 31.687C2.07007 31.7204 2.19673 31.7857 2.3394 31.8337C2.4794 31.887 2.61407 31.9444 2.63807 31.9657C2.7034 32.031 2.78473 32.0057 3.0874 31.843L3.38073 31.679L3.50073 31.7617C3.6434 31.855 3.90073 31.863 4.11806 31.7817C4.2034 31.7484 4.3754 31.7124 4.50207 31.7044C4.7554 31.679 4.9194 31.611 5.18473 31.4057C5.27146 31.3379 5.36816 31.2839 5.4714 31.2457C5.59007 31.2217 6.6154 30.183 7.16473 29.5284C7.3354 29.3284 7.76473 28.875 8.12473 28.523C8.6274 28.0244 8.8514 27.8364 9.13807 27.6644C9.5514 27.4204 9.87807 27.1217 9.91807 26.9457C9.94789 26.847 9.98906 26.7522 10.0407 26.663C10.1674 26.447 10.3114 25.891 10.2741 25.7523C10.2394 25.6446 10.1943 25.5406 10.1394 25.4417C10.0327 25.2537 10.0247 25.1884 10.0047 24.6644C9.9674 23.7444 9.82073 23.263 9.35406 22.539C9.08473 22.1217 9.0194 21.975 8.8514 21.435C8.57407 20.507 8.4914 19.635 8.6314 18.9537C8.69673 18.6137 8.72873 18.5697 9.0034 18.4097C9.14606 18.3244 9.33407 18.1897 9.42473 18.107L9.5914 17.9524L10.3847 17.8617C10.8221 17.8084 11.3127 17.7444 11.4674 17.711C11.6274 17.679 11.9781 17.6044 12.2487 17.551C12.5221 17.495 12.9114 17.3964 13.1114 17.331C13.3114 17.2617 13.5941 17.179 13.7407 17.147C14.0274 17.0804 15.0034 16.987 15.0367 17.0204C15.0487 17.0337 15.0607 17.6177 15.0567 18.3204C15.0567 19.4244 15.0447 19.723 14.9501 20.5364C14.8081 21.6536 14.7307 22.7782 14.7181 23.9044C14.6807 25.4324 14.6687 25.5017 14.4194 25.6817C14.2394 25.8124 14.0554 25.7884 13.5127 25.5484C13.0924 25.3681 12.6697 25.1934 12.2447 25.0244C11.7931 24.842 11.3471 24.6459 10.9074 24.4364C10.5967 24.2804 10.3434 24.1657 10.3434 24.1777C10.3434 24.1897 10.4994 24.391 10.6901 24.623C10.8834 24.8563 11.0381 25.0564 11.0381 25.0684C11.0381 25.0804 11.0021 25.095 10.9527 25.095C10.8794 25.095 10.8754 25.1017 10.9327 25.179C10.9687 25.2324 10.9807 25.3137 10.9687 25.4004C10.9527 25.511 10.9647 25.547 11.0461 25.6004C11.0994 25.6377 11.1861 25.739 11.2394 25.8297C11.2884 25.9179 11.3515 25.9976 11.4261 26.0657C11.4958 26.1288 11.5556 26.2021 11.6034 26.283C11.6434 26.3604 11.7821 26.5044 11.9141 26.603C12.022 26.6794 12.1167 26.7731 12.1941 26.8804C12.2207 26.9417 12.3394 27.031 12.4781 27.1004C12.8007 27.2644 13.2741 27.6817 13.3514 27.8657C13.3967 27.979 13.4874 28.0697 13.7487 28.2417C13.9581 28.3804 14.3247 28.699 14.7341 29.1044C15.4781 29.839 15.5194 29.8644 16.1234 29.827C16.5167 29.799 16.7127 29.7257 16.9461 29.5124C17.0394 29.427 17.1541 29.3364 17.1954 29.3124C17.2827 29.236 17.3571 29.1459 17.4154 29.0457C17.4824 28.9329 17.5696 28.8335 17.6727 28.7523C17.8447 28.6497 18.1514 28.2164 18.1514 28.0777C18.1514 27.8737 18.2287 27.743 18.4981 27.4897C18.7354 27.2684 18.7847 27.195 18.9327 26.831C19.1621 26.275 19.2421 25.915 19.3167 25.2004C19.4061 24.3177 19.3981 23.251 19.2967 22.5844C19.1287 21.4964 18.4914 18.467 18.2994 17.8617C18.1394 17.359 17.9887 16.7057 17.9887 16.5177C17.9887 16.4724 18.0741 16.4684 18.4087 16.4884C18.7154 16.5097 18.9554 16.5017 19.3087 16.4484C19.7247 16.387 19.8687 16.3817 20.3087 16.423C20.5914 16.4484 20.8327 16.4764 20.8421 16.4897C20.8741 16.5164 21.5034 18.5657 21.6101 18.983C21.8301 19.8364 21.8354 19.8977 21.8794 22.0484C21.9007 23.1723 21.9194 24.5057 21.9287 25.0124C21.9367 25.8657 21.9447 25.959 22.0474 26.3364C22.1781 26.815 22.3207 27.1257 22.6154 27.5497C22.7341 27.719 22.9141 28.0124 23.0154 28.2004C23.2207 28.5804 23.4861 28.895 23.8287 29.1564C24.2794 29.5044 24.7167 29.787 24.9861 29.9097C25.3101 30.0564 25.5714 30.2897 25.8287 30.6537C25.9354 30.8004 26.0861 31.0004 26.1674 31.103C26.2501 31.2057 26.3514 31.3604 26.3967 31.4497C26.4741 31.6137 26.4994 31.631 26.9407 31.7617C27.1447 31.823 27.7087 31.835 28.0234 31.7817C28.1994 31.7524 28.2647 31.7124 28.5474 31.4377C28.9274 31.0697 29.1074 30.8124 29.1074 30.6284C29.1074 30.343 29.1474 30.2564 29.3154 30.191C29.4221 30.1492 29.4754 30.103 29.4754 30.0524C29.4754 29.795 29.2047 28.7564 29.0661 28.4857C28.9754 28.307 27.8034 26.7204 26.8181 25.4417C25.7714 24.0884 25.4034 23.499 25.1861 22.8617C25.1167 22.6444 24.8554 21.1604 24.6927 20.0044C24.5593 19.125 24.3216 18.2648 23.9847 17.4417C23.8621 17.131 23.7767 16.8777 23.7967 16.8777C23.8954 16.8777 26.0007 17.4657 26.1234 17.527C26.2007 17.567 26.5194 17.7404 26.8261 17.911C27.1327 18.087 27.4314 18.2257 27.4834 18.2257C27.5447 18.2257 27.8034 18.3697 28.1047 18.5724L28.6247 18.9217L28.8941 18.9004C29.2834 18.863 29.3554 18.847 29.5207 18.7324C29.7527 18.5724 29.8914 18.5484 30.0754 18.635C30.4314 18.803 30.6767 18.831 30.4607 18.6804C30.1367 18.4537 30.1047 18.3444 30.2927 18.0617C30.5181 17.719 30.5421 17.695 30.7741 17.5764C31.1474 17.3884 31.1714 17.343 31.2941 16.6724C31.3514 16.3457 31.4274 16.027 31.4621 15.9617C31.5554 15.7644 31.5354 15.639 31.3754 15.487C31.2614 15.3675 31.1587 15.2376 31.0687 15.099C30.9421 14.903 30.9061 14.8084 30.9061 14.6657C30.9061 14.5057 30.8887 14.4737 30.7714 14.399C30.6792 14.3425 30.5819 14.2947 30.4807 14.2564C30.3047 14.195 30.0314 13.9057 30.0674 13.8244L30.1127 13.7137C30.1461 13.631 29.8141 13.451 29.4861 13.3737C29.1607 13.2964 29.1647 13.2964 29.2221 13.231C29.2501 13.1937 29.2487 13.067 29.2247 12.831C29.1021 11.711 28.6487 10.9244 27.8927 10.5284C27.7792 10.4757 27.6723 10.4099 27.5741 10.3324C27.4967 10.2137 26.5314 9.84569 26.0007 9.73635C25.7533 9.68377 25.5078 9.62239 25.2647 9.55235C24.9972 9.4822 24.7256 9.42876 24.4514 9.39235C23.8421 9.33502 23.0207 9.19635 22.7501 9.10969C22.5157 9.04559 22.2786 8.9922 22.0394 8.94969C21.7821 8.90169 21.5607 8.84835 21.5487 8.82835C21.5327 8.80435 21.4341 8.80702 21.2994 8.83235C21.1434 8.86035 20.9114 8.86035 20.5434 8.82835C20.0125 8.7947 19.4806 8.78091 18.9487 8.78702C18.0501 8.79102 17.8047 8.77902 17.3461 8.70569C17.0554 8.65741 16.7619 8.62846 16.4674 8.61902C16.0181 8.61502 14.6941 8.48035 14.9301 8.45902C14.9674 8.45902 15.0901 8.43635 15.2034 8.41102C15.3914 8.37102 15.4034 8.36169 15.3674 8.28035C15.3274 8.19369 15.3061 8.19102 14.7301 8.19502C14.2394 8.19502 14.1247 8.20702 14.0887 8.26035C14.0474 8.31369 14.0061 8.31769 13.8261 8.28435C13.6341 8.24435 13.6221 8.23502 13.6834 8.18702C13.7487 8.13769 13.7501 8.12569 13.6967 8.08835C13.6583 8.06386 13.6142 8.04963 13.5687 8.04702C13.5154 8.04702 10.9607 7.79369 9.89807 7.68302C9.68873 7.65902 9.50607 7.63502 9.49407 7.61769C9.48073 7.60569 9.50207 7.59769 9.53806 7.59769C9.57806 7.59769 9.6074 7.58169 9.6074 7.56035C9.6074 7.49902 9.3994 7.48302 9.11407 7.52835C8.91407 7.55635 8.8074 7.55635 8.74073 7.52435C8.6634 7.49102 8.6874 7.48702 8.86473 7.50435C9.2514 7.54435 9.08873 7.45102 8.6794 7.40169C8.4594 7.37235 8.23006 7.34435 8.17273 7.33502C8.10881 7.32408 8.04682 7.30386 7.98873 7.27502C7.94873 7.24969 7.49807 7.17235 6.9914 7.10302C6.56538 7.04929 6.14255 6.97274 5.72473 6.87369C5.06207 6.68702 4.45273 6.38035 4.10207 6.06435L3.91807 5.90169L3.9834 5.74569C4.03608 5.60045 4.11756 5.46736 4.22296 5.3544C4.32835 5.24145 4.45549 5.15095 4.59673 5.08835C5.01673 4.88302 5.21006 4.85102 6.0314 4.82569C6.77807 4.80969 6.9554 4.77769 6.86873 4.67902C6.82873 4.62169 6.2394 4.53235 5.94607 4.53235C5.76207 4.53235 5.3034 4.44169 4.88207 4.31902C4.70924 4.26733 4.52892 4.24524 4.34873 4.25369ZM16.1487 8.18702C16.1183 8.18623 16.0879 8.18891 16.0581 8.19502C15.8181 8.23502 15.6781 8.29235 15.5554 8.39502L15.4327 8.49235L15.6287 8.49635C15.7151 8.50296 15.802 8.49076 15.8832 8.46061C15.9645 8.43046 16.0382 8.38306 16.0994 8.32169C16.1945 8.23546 16.211 8.18969 16.1487 8.18702ZM23.8501 9.45635C23.9239 9.4585 23.9969 9.47292 24.0661 9.49902C24.1621 9.5316 24.2635 9.54563 24.3647 9.54035C24.4047 9.52835 24.4541 9.53635 24.4714 9.56569C24.4914 9.60169 24.4314 9.60569 24.2261 9.58569C24.0456 9.56524 23.9554 9.56924 23.9554 9.59769C23.9554 9.62169 24.0047 9.65102 24.0701 9.66435C24.3687 9.72835 24.4167 9.76169 24.1607 9.73635C23.9975 9.72066 23.8339 9.70999 23.6701 9.70435C23.4567 9.70435 23.4447 9.70835 23.4327 9.81102C23.4194 9.90435 23.3927 9.92435 23.1927 9.96569C22.9181 10.019 22.9554 10.023 22.7501 9.92835C22.5661 9.83902 22.1607 9.74169 21.6581 9.66302C21.4714 9.63502 21.3781 9.60969 21.4421 9.60569C21.5114 9.60569 21.8874 9.64702 22.2807 9.70435C23.0074 9.80702 23.2127 9.82702 23.1674 9.78169C22.9326 9.71755 22.695 9.66416 22.4554 9.62169L21.7687 9.48835L22.1687 9.48302C22.5207 9.47902 22.5821 9.49235 22.6887 9.56969C22.7794 9.63502 22.8234 9.64702 22.8567 9.61502C22.8847 9.58569 23.0074 9.57769 23.1994 9.58835C23.4567 9.60969 23.5261 9.60169 23.6701 9.52435C23.7255 9.49143 23.7865 9.46751 23.8501 9.45635ZM18.0541 10.1417C18.0754 10.1408 18.0914 10.1452 18.1021 10.155C18.1194 10.1684 18.1021 10.195 18.0701 10.2164C17.9927 10.2657 17.9594 10.2657 17.9274 10.2204C17.9087 10.187 17.9941 10.1444 18.0541 10.1417ZM24.7034 10.2617C24.7105 10.259 24.7256 10.2755 24.7487 10.311C24.7818 10.35 24.8286 10.3748 24.8794 10.3804C24.9461 10.3804 24.9501 10.3884 24.8967 10.4204C24.8719 10.4373 24.8444 10.4499 24.8154 10.4577C24.7327 10.4497 24.6927 10.4004 24.6927 10.327C24.6927 10.287 24.6963 10.2652 24.7034 10.2617ZM19.4354 10.5017C19.3527 10.5017 19.2967 10.5724 19.2967 10.6697C19.2967 10.691 19.3901 10.707 19.5047 10.707C19.7007 10.707 19.7087 10.703 19.6594 10.6377C19.5794 10.531 19.5287 10.5017 19.4354 10.5017ZM27.6887 12.9444C27.7167 12.9324 27.7874 12.9604 27.8434 13.0017C27.9341 13.071 27.9341 13.079 27.8607 13.075C27.7461 13.075 27.6167 12.9737 27.6887 12.9444Z" fill="white"/>
</g>
<defs>
<clipPath id="clip0_328_387">
<rect width="32" height="32" fill="white"/>
</clipPath>
</defs>
</svg>
