<svg width="195" height="195" viewBox="0 0 195 195" fill="none" xmlns="http://www.w3.org/2000/svg">
<path d="M151.063 44.5802H129.95L129.732 46.4035C135.43 46.4035 140.619 48.1195 140.619 55.7517V72.2701C140.619 87.0277 134.336 92.7997 128.199 92.7997C120.309 92.7997 117.094 87.6127 117.094 76.8V54.2151C117.094 49.4668 121.185 46.4015 125.715 46.4015L125.643 44.5783H98.9413L78.63 44.5061V46.4015C80.2368 46.4015 88.9319 47.279 88.9319 54.5115V77.6014C88.9319 80.0077 89.9654 87.798 89.9654 87.798C89.9654 87.798 89.4077 87.7921 88.9319 87.8038C88.2943 85.3858 87.524 77.1763 84.2578 73.2237L58.4651 41L44 53.5657L44.8873 54.9912C44.8873 54.9912 47.3521 52.9222 50.1289 52.9222C51.5173 52.9222 52.9856 54.4374 52.9856 56.7013V87.4294C52.9856 92.8699 44.9516 93.7981 44.9516 93.7981L45.0979 95.5005H65.918L66.1384 93.7981C66.1384 93.7981 56.714 93.0474 56.714 87.2832V58.5382C56.714 57.5106 55.8209 52.4211 55.7468 52.1286C55.7468 52.1286 56.5561 52.1325 56.7316 52.1325C57.0553 53.515 57.6598 57.8362 60.8168 62.2842C64.7617 67.1787 84.6224 92.361 87.4714 95.5024H93.6801C93.023 92.0685 92.5862 87.837 92.5862 83.818L92.5141 54.2404C92.5141 48.5641 96.4375 46.7447 98.9159 46.7447C101.394 46.7447 105.257 48.3106 105.257 53.9518V73.5103C105.257 86.2965 112.271 96.6705 125.13 96.6705C138.719 96.6705 144.782 88.5604 144.782 70.5151C144.782 65.254 144.928 59.9169 144.928 54.8761C144.928 47.2771 151.209 46.4015 151.209 46.4015L151.063 44.5802Z" fill="white"/>
<path d="M126.512 112.912L108.383 155.635H107.287L96.1096 133.935L86.0281 155.635H84.86L61.1168 109.348C59.2175 105.988 56.0098 105.52 56.0098 105.52L56.585 104.055H133.665L134.055 105.75C134.055 105.75 129.289 106.776 126.512 112.912ZM87.3268 135.94C88.5611 138.483 86.7983 143.323 86.2874 145.019C86.5565 145.027 87.1727 145.019 87.1727 145.019L93.9899 130.357L84.2321 112.085C81.8941 107.702 79.8485 106.46 77.9492 106.46C75.9758 106.46 73.5656 108.287 75.2465 111.647C75.2465 111.647 86.7749 134.805 87.3268 135.94ZM101.222 122.686L105.532 113.369C107.578 108.985 106.263 106.14 101.148 106.14C95.741 106.14 94.0796 108.868 96.4177 113.398L101.222 122.686ZM118.184 106.14C114.065 106.14 111.491 108.386 109.446 112.77L103.196 126.266C103.196 126.266 107.301 134.259 108.391 136.425C109.654 138.933 107.667 144.106 107.182 145.941C107.466 145.943 108.088 145.941 108.088 145.941L121.746 114.414C123.718 109.517 122.711 106.14 118.184 106.14Z" fill="white"/>
</svg>
